<svg width="80" height="20" viewBox="0 0 80 20" fill="none" xmlns="http://www.w3.org/2000/svg">
<path d="M11.2525 14.0269C11.1668 14.1106 11.0298 14.211 10.8414 14.3282C10.653 14.4454 10.3961 14.5794 10.0877 14.6966C9.77941 14.8138 9.40258 14.931 8.9401 15.0147C8.49475 15.0984 7.98089 15.1486 7.39851 15.1486C6.28514 15.1486 5.3088 14.9644 4.48662 14.6296C3.66444 14.278 2.99641 13.7925 2.46542 13.1563C1.93443 12.5201 1.54046 11.7834 1.30066 10.9295C1.04373 10.0757 0.923828 9.12134 0.923828 8.10005C0.923828 7.07876 1.06086 6.12444 1.33492 5.25384C1.60898 4.38323 2.00294 3.62982 2.55106 2.99361C3.08206 2.3574 3.76721 1.85512 4.57226 1.50353C5.37731 1.15194 6.33653 0.967773 7.43277 0.967773C7.96376 0.967773 8.4605 1.018 8.88872 1.10171C9.31694 1.20217 9.7109 1.30262 10.0363 1.43656C10.3618 1.5705 10.6359 1.70444 10.8414 1.83838C11.0641 1.97232 11.2182 2.10626 11.321 2.18997C11.4409 2.29042 11.5608 2.42437 11.6465 2.57505C11.7321 2.72573 11.7835 2.89315 11.7835 3.06058C11.7835 3.32846 11.6807 3.59633 11.4752 3.86421C11.2696 4.13209 11.0469 4.38323 10.79 4.61762C10.6187 4.4502 10.4303 4.28277 10.2248 4.11535C10.0192 3.94792 9.77941 3.79725 9.52248 3.66331C9.26555 3.52937 8.97436 3.42891 8.64891 3.3452C8.32347 3.26149 7.96376 3.21126 7.55267 3.21126C6.85039 3.21126 6.25088 3.3452 5.77128 3.62982C5.29167 3.91444 4.91484 4.26603 4.62365 4.71808C4.33246 5.17012 4.12691 5.6724 4.00701 6.24164C3.88711 6.81088 3.8186 7.39687 3.8186 7.9996C3.8186 8.63581 3.88711 9.23853 4.00701 9.82452C4.12691 10.4105 4.34959 10.9128 4.65791 11.3648C4.96622 11.8169 5.36019 12.1685 5.85692 12.4363C6.35366 12.7042 6.95316 12.8382 7.6897 12.8382C8.08366 12.8382 8.42624 12.7879 8.75169 12.7042C9.07713 12.6038 9.36832 12.4866 9.60813 12.3526C9.86506 12.2187 10.0706 12.068 10.259 11.9341C10.4474 11.7834 10.6016 11.6494 10.7215 11.549C10.8071 11.6494 10.8928 11.7666 11.0127 11.9006C11.1326 12.0345 11.2354 12.1852 11.321 12.3191C11.4238 12.4698 11.4923 12.6205 11.5779 12.7712C11.6465 12.9219 11.6807 13.0558 11.6807 13.173C11.6807 13.3572 11.6465 13.4911 11.5779 13.6251C11.5094 13.7423 11.3895 13.8762 11.2525 14.0269ZM21.9409 12.4698C21.9409 13.5413 22.095 14.3282 22.4205 14.8138C22.1635 14.9142 21.9409 14.9812 21.7182 15.0147C21.4955 15.0482 21.2728 15.0816 21.033 15.0816C20.5363 15.0816 20.1595 14.9812 19.9025 14.797C19.6456 14.6129 19.4743 14.3282 19.4058 13.9766C19.0975 14.2948 18.7035 14.5626 18.1897 14.7803C17.6929 14.9979 17.0763 15.0984 16.3569 15.0984C15.98 15.0984 15.6032 15.0482 15.2264 14.9477C14.8495 14.8473 14.507 14.6798 14.1986 14.4454C13.8903 14.211 13.6505 13.9097 13.445 13.5246C13.2566 13.1395 13.1538 12.6707 13.1538 12.1182C13.1538 11.4318 13.3251 10.8626 13.6677 10.4272C14.0102 9.99195 14.4384 9.6571 14.9523 9.40596C15.4662 9.15482 16.0314 8.9874 16.6138 8.88694C17.2133 8.78649 17.7614 8.73627 18.2582 8.70278C18.4295 8.68604 18.5836 8.68604 18.7549 8.68604H19.2002V8.3177C19.2002 7.79869 19.0632 7.43036 18.772 7.19596C18.4808 6.97831 18.0184 6.86111 17.3846 6.86111C16.7851 6.86111 16.2541 6.96156 15.7916 7.14573C15.3291 7.3299 14.8667 7.54755 14.4213 7.79869C14.2329 7.56429 14.0616 7.31316 13.9588 7.02854C13.8389 6.74392 13.7876 6.543 13.7876 6.40906C13.7876 6.2249 13.8903 6.04073 14.113 5.85657C14.3357 5.6724 14.6269 5.52171 15.0037 5.37103C15.3805 5.22035 15.8087 5.1199 16.3055 5.01944C16.7851 4.93573 17.299 4.8855 17.8471 4.8855C18.6007 4.8855 19.2345 4.95248 19.7484 5.10316C20.2622 5.25384 20.6905 5.48823 21.0159 5.78959C21.3413 6.1077 21.5812 6.49277 21.7182 6.96156C21.8552 7.43035 21.9237 7.98285 21.9237 8.60232L21.9409 12.4698ZM19.2688 10.1091H18.9776C18.8748 10.1091 18.7892 10.1091 18.6864 10.1259C18.3438 10.1594 18.0012 10.1929 17.6587 10.2431C17.3161 10.2933 17.0078 10.3938 16.7508 10.5277C16.4939 10.6616 16.2712 10.8458 16.0999 11.0635C15.9287 11.2811 15.843 11.5657 15.843 11.9006C15.843 12.2857 15.9458 12.6038 16.1685 12.8716C16.3911 13.1395 16.768 13.2735 17.299 13.2735C17.5559 13.2735 17.8128 13.24 18.0526 13.173C18.2924 13.106 18.498 13.0223 18.6864 12.9051C18.8748 12.7879 19.0118 12.6707 19.1146 12.5535C19.2174 12.4196 19.2688 12.3024 19.2688 12.2019V10.1091ZM27.1309 6.09096C27.3536 5.83982 27.6961 5.57194 28.1757 5.30406C28.6553 5.03618 29.2377 4.90225 29.9571 4.90225C30.471 4.90225 30.9677 4.98596 31.4302 5.15338C31.8927 5.32081 32.3038 5.60543 32.6635 5.97376C33.0232 6.35884 33.3144 6.86111 33.5199 7.48058C33.7426 8.10005 33.8454 8.8702 33.8454 9.79104C33.8454 10.8458 33.7255 11.7332 33.4685 12.4196C33.2116 13.106 32.9033 13.6585 32.5093 14.0436C32.1154 14.4454 31.67 14.7301 31.1904 14.8975C30.7108 15.0649 30.2141 15.1486 29.7345 15.1486C29.3405 15.1486 28.9808 15.0984 28.6896 15.0147C28.3984 14.931 28.1415 14.8305 27.9359 14.7133C27.7304 14.6129 27.5762 14.4957 27.4563 14.3952C27.3536 14.2948 27.2679 14.211 27.2508 14.1776V19.2003H24.4074V5.20361C24.4759 5.18686 24.5616 5.17013 24.6643 5.17013C24.75 5.15338 24.8528 5.15338 24.9555 5.13664C25.0754 5.13664 25.1953 5.1199 25.3495 5.1199C25.812 5.1199 26.2059 5.18687 26.5314 5.33755C26.8397 5.48823 27.0452 5.73937 27.1309 6.09096ZM30.8992 9.85801C30.8992 9.45619 30.865 9.07111 30.7964 8.71952C30.7279 8.36793 30.608 8.06656 30.4539 7.79869C30.2997 7.54755 30.077 7.34664 29.803 7.19596C29.5289 7.04528 29.2035 6.97831 28.8095 6.97831C28.2271 6.97831 27.816 7.0955 27.5934 7.29641C27.3707 7.51406 27.2508 7.74846 27.2508 8.01634V12.3526C27.3536 12.4698 27.5591 12.587 27.8503 12.7377C28.1415 12.8884 28.4669 12.9554 28.8438 12.9554C29.546 12.9554 30.0599 12.6875 30.4025 12.135C30.7279 11.5992 30.8992 10.8458 30.8992 9.85801ZM36.0379 13.3739C35.9351 13.106 35.8837 12.8214 35.8494 12.5201C35.8152 12.2187 35.8152 11.9173 35.8152 11.616V2.15649C35.9179 2.13974 36.0207 2.123 36.1235 2.123C36.2263 2.10626 36.329 2.10626 36.4318 2.08952C36.5346 2.08952 36.6545 2.07278 36.7573 2.07278C36.9799 2.07278 37.2026 2.08952 37.4253 2.13974C37.648 2.17323 37.8535 2.25694 38.0248 2.39088C38.2132 2.50808 38.3502 2.6755 38.4701 2.89315C38.5729 3.11081 38.6414 3.37868 38.6414 3.71353V5.17013H41.5705V7.22944H38.6586V11.5825C38.6586 12.5368 39.0525 13.0056 39.8404 13.0056C40.0289 13.0056 40.2173 12.9721 40.3886 12.9219C40.5599 12.8549 40.714 12.7879 40.851 12.721C40.9881 12.654 41.108 12.5703 41.2107 12.4866C41.3135 12.4029 41.382 12.3359 41.4334 12.3024C41.639 12.6038 41.8103 12.8549 41.913 13.0726C42.0158 13.2902 42.0843 13.4911 42.0843 13.692C42.0843 13.8762 42.0158 14.0436 41.8616 14.211C41.7075 14.3785 41.5019 14.5459 41.245 14.6798C40.9881 14.8305 40.6626 14.9477 40.2858 15.0314C39.909 15.1151 39.4979 15.1654 39.0525 15.1654C38.1961 15.1654 37.5109 14.9979 37.0313 14.6798C36.586 14.3282 36.2434 13.9097 36.0379 13.3739ZM48.7645 13.106C49.1071 13.106 49.4154 13.0726 49.6895 12.9888C49.9464 12.9219 50.1862 12.8214 50.4089 12.721C50.6145 12.6205 50.8029 12.4866 50.957 12.3694C51.1112 12.2354 51.2482 12.1182 51.3681 12.0178C51.5394 12.2187 51.7107 12.4866 51.8991 12.8047C52.0875 13.1228 52.1732 13.3907 52.1732 13.5916C52.1732 13.8929 52.0019 14.1608 51.6593 14.4119C51.3681 14.6296 50.957 14.8138 50.4089 14.9812C49.8779 15.1319 49.2442 15.2156 48.5247 15.2156C47.8739 15.2156 47.2229 15.1319 46.5892 14.9644C45.9554 14.797 45.3902 14.5124 44.8934 14.1106C44.3967 13.7088 44.0027 13.1563 43.6944 12.4698C43.3861 11.7834 43.2319 10.9128 43.2319 9.87475C43.2319 9.02089 43.369 8.28422 43.643 7.66475C43.9171 7.04528 44.2768 6.52626 44.7221 6.12444C45.1675 5.72262 45.6814 5.42126 46.2637 5.22035C46.829 5.03618 47.4114 4.93573 48.0109 4.93573C48.7817 4.93573 49.4497 5.05293 49.9978 5.28732C50.5459 5.52171 50.9742 5.83982 51.3167 6.24164C51.6593 6.64346 51.8991 7.09551 52.0533 7.61452C52.2074 8.13354 52.2759 8.66929 52.2759 9.23853V9.52316C52.2759 9.64036 52.276 9.74081 52.2588 9.87475C52.2588 9.99195 52.2417 10.1091 52.2417 10.2263C52.2417 10.3435 52.2246 10.4272 52.2074 10.4942H46.0582C46.1096 11.2476 46.3494 11.8671 46.7776 12.3694C47.1887 12.8549 47.8567 13.106 48.7645 13.106ZM49.7238 8.97066C49.7238 8.3177 49.5867 7.78194 49.3298 7.38012C49.0729 6.97831 48.6104 6.76066 47.9424 6.76066C47.36 6.76066 46.9146 6.96157 46.5721 7.34664C46.2295 7.73172 46.0582 8.26747 46.0582 8.97066H49.7238ZM57.2262 6.14118C57.3118 6.02399 57.4146 5.89005 57.5516 5.73937C57.6886 5.58869 57.8599 5.45475 58.0655 5.33755C58.271 5.22035 58.4937 5.1199 58.7335 5.03618C58.9733 4.95247 59.2302 4.91899 59.5214 4.91899C59.6927 4.91899 59.864 4.93573 60.0524 4.95247C60.2408 4.98596 60.4121 5.03619 60.5663 5.10316C60.7204 5.17013 60.8575 5.27058 60.9602 5.40452C61.063 5.53846 61.1144 5.68914 61.1144 5.8733C61.1144 6.17467 61.0459 6.50952 60.8917 6.89459C60.7376 7.27967 60.5834 7.61452 60.4293 7.8824C60.1895 7.69823 59.9496 7.54755 59.727 7.4471C59.4872 7.34664 59.2131 7.29641 58.8877 7.29641C58.4594 7.29641 58.0997 7.41361 57.8085 7.66475C57.5174 7.91588 57.3632 8.2005 57.3632 8.55209V15.1486H54.5198V5.18687C54.5883 5.17013 54.674 5.15338 54.7768 5.15338C54.8624 5.13664 54.9652 5.13664 55.0679 5.1199C55.1707 5.1199 55.3077 5.10316 55.4619 5.10316C55.9073 5.10316 56.3012 5.18687 56.6267 5.35429C56.935 5.53846 57.1405 5.78959 57.2262 6.14118ZM65.2938 6.14118C65.3795 6.02399 65.4822 5.89005 65.6193 5.73937C65.7563 5.58869 65.9276 5.45475 66.1331 5.33755C66.3387 5.22035 66.5614 5.1199 66.8012 5.03618C67.041 4.95247 67.2979 4.91899 67.5891 4.91899C67.7604 4.91899 67.9317 4.93573 68.1201 4.95247C68.3085 4.98596 68.4798 5.03619 68.6339 5.10316C68.7881 5.17013 68.9251 5.27058 69.0279 5.40452C69.1307 5.53846 69.1821 5.68914 69.1821 5.8733C69.1821 6.17467 69.1136 6.50952 68.9594 6.89459C68.8052 7.27967 68.6511 7.61452 68.4969 7.8824C68.2571 7.69823 68.0173 7.54755 67.7946 7.4471C67.5548 7.34664 67.2808 7.29641 66.9553 7.29641C66.5271 7.29641 66.1674 7.41361 65.8762 7.66475C65.585 7.91588 65.4309 8.2005 65.4309 8.55209V15.1486H62.5875V5.18687C62.656 5.17013 62.7416 5.15338 62.8444 5.15338C62.9301 5.13664 63.0328 5.13664 63.1356 5.1199C63.2384 5.1199 63.3754 5.10316 63.5296 5.10316C63.9749 5.10316 64.3689 5.18687 64.6943 5.35429C65.0026 5.53846 65.2082 5.78959 65.2938 6.14118ZM78.8427 12.4698C78.8427 13.5413 78.9969 14.3282 79.3223 14.8138C79.0654 14.9142 78.8427 14.9812 78.62 15.0147C78.3974 15.0482 78.1747 15.0816 77.9349 15.0816C77.4381 15.0816 77.0613 14.9812 76.8044 14.797C76.5474 14.6129 76.3762 14.3282 76.3076 13.9766C75.9993 14.2948 75.6054 14.5626 75.0915 14.7803C74.5948 14.9979 73.9781 15.0984 73.2587 15.0984C72.8819 15.0984 72.5051 15.0482 72.1282 14.9477C71.7514 14.8473 71.4088 14.6798 71.1005 14.4454C70.7922 14.211 70.5524 13.9097 70.3468 13.5246C70.1584 13.1395 70.0556 12.6707 70.0556 12.1182C70.0556 11.4318 70.2269 10.8626 70.5695 10.4272C70.9121 9.99195 71.3403 9.6571 71.8542 9.40596C72.368 9.15482 72.9333 8.9874 73.5156 8.88694C74.1152 8.78649 74.6633 8.73627 75.16 8.70278C75.3313 8.68604 75.4855 8.68604 75.6567 8.68604H76.1021V8.3177C76.1021 7.79869 75.9651 7.43036 75.6739 7.19596C75.3827 6.97831 74.9202 6.86111 74.2864 6.86111C73.6869 6.86111 73.1559 6.96156 72.6935 7.14573C72.231 7.3299 71.7685 7.54755 71.3232 7.79869C71.1348 7.56429 70.9635 7.31316 70.8607 7.02854C70.7408 6.74392 70.6894 6.543 70.6894 6.40906C70.6894 6.2249 70.7922 6.04073 71.0148 5.85657C71.2375 5.6724 71.5287 5.52171 71.9055 5.37103C72.2824 5.22035 72.7106 5.1199 73.2073 5.01944C73.6869 4.93573 74.2008 4.8855 74.7489 4.8855C75.5026 4.8855 76.1364 4.95248 76.6502 5.10316C77.1641 5.25384 77.5923 5.48823 77.9177 5.78959C78.2432 6.1077 78.483 6.49277 78.62 6.96156C78.7571 7.43035 78.8256 7.98285 78.8256 8.60232L78.8427 12.4698ZM76.1706 10.1091H75.8794C75.7766 10.1091 75.691 10.1091 75.5882 10.1259C75.2457 10.1594 74.9031 10.1929 74.5605 10.2431C74.2179 10.2933 73.9096 10.3938 73.6527 10.5277C73.3957 10.6616 73.1731 10.8458 73.0018 11.0635C72.8305 11.2811 72.7449 11.5657 72.7449 11.9006C72.7449 12.2857 72.8476 12.6038 73.0703 12.8716C73.293 13.1395 73.6698 13.2735 74.2008 13.2735C74.4577 13.2735 74.7147 13.24 74.9545 13.173C75.1943 13.106 75.3998 13.0223 75.5882 12.9051C75.7766 12.7879 75.9137 12.6707 76.0164 12.5535C76.1192 12.4196 76.1706 12.3024 76.1706 12.2019V10.1091Z" fill="#044D80"/>
</svg>
